<svg xmlns="http://www.w3.org/2000/svg" viewBox="395.5 56 400 400"><path fill="#ffccbc" d="M692.378,424.357c-14.114,3.008-24.24,1.904-33.176,0.931c-8.177-0.89-15.238-1.659-25.43,0.513 c-10.191,2.173-16.327,5.754-23.43,9.9c-7.763,4.531-16.56,9.669-30.673,12.677c-37.526,7.996-71.208-5.852-76.679-31.526 c-11.012-51.672,30.434-150.089,94.001-163.636c63.567-13.548,141.538,59.421,152.549,111.092 C755.013,389.982,729.904,416.36,692.378,424.357z"/><path fill="#ffccbc" d="M530.29,251.229c-29.625,6.313-60.416-24.325-70.096-69.751c-9.681-45.426,5.942-85.956,35.568-92.27 c29.625-6.313,60.416,24.324,70.097,69.751C575.539,204.385,559.915,244.914,530.29,251.229z"/><path fill="#cb9b8c" d="M657.088,224.205c-29.626,6.314-60.416-24.324-70.097-69.75c-9.681-45.426,5.943-85.955,35.568-92.27 c29.626-6.313,60.416,24.325,70.097,69.751C702.337,177.363,686.714,217.892,657.088,224.205z"/><path fill="#ffccbc" d="M431.305,315.178c-20.665-23.722-22.769-52.271-6.743-66.646c15.872-14.238,44.056-10.113,65.591,13.602 c21.371,23.533,22.296,52.526,6.743,66.646C481.68,342.595,452.086,339.034,431.305,315.178z"/><path fill="#cb9b8c" d="M719.198,281.404c-19.959-6.553-30.936-33.402-21.016-63.605c9.994-30.435,34.048-45.692,54.346-39.162 c20.494,6.593,30.213,33.519,21.017,63.604C764.295,272.498,738.725,287.815,719.198,281.404z"/><path fill="#cb9b8c" d="M596.992,253.215L633.772,425.8c10.191-2.172,17.253-1.402,25.43-0.513 c8.936,0.974,19.062,2.077,33.176-0.931c37.526-7.997,62.635-34.375,57.163-60.05C738.529,312.636,660.559,239.667,596.992,253.215 z"/></svg>
